<?xml version="1.0" encoding="UTF-8" standalone="no"?>
<!-- Created with Inkscape (http://www.inkscape.org/) -->

<svg
   width="51.795147mm"
   height="21.371637mm"
   viewBox="0 0 51.795147 21.371637"
   version="1.1"
   id="svg5"
   xmlns:xlink="http://www.w3.org/1999/xlink"
   xmlns="http://www.w3.org/2000/svg"
   xmlns:svg="http://www.w3.org/2000/svg">
  <defs
     id="defs2">
    <radialGradient
       xlink:href="#linearGradient101492"
       id="radialGradient37004"
       cx="-4.6300764"
       cy="310.358"
       fx="-4.6300764"
       fy="310.358"
       r="25.897575"
       gradientTransform="matrix(1.2789615,0,0,0.6550617,1.2916128,107.05437)"
       gradientUnits="userSpaceOnUse" />
    <linearGradient
       id="linearGradient101492">
      <stop
         style="stop-color:#f4eb96;stop-opacity:1;"
         offset="0"
         id="stop101488" />
      <stop
         style="stop-color:#94632b;stop-opacity:1"
         offset="1"
         id="stop101490" />
    </linearGradient>
    <radialGradient
       xlink:href="#linearGradient101492"
       id="radialGradient1306"
       gradientUnits="userSpaceOnUse"
       gradientTransform="matrix(1.2789615,0,0,0.6550617,1.2916128,107.05437)"
       cx="-4.6300764"
       cy="310.358"
       fx="-4.6300764"
       fy="310.358"
       r="25.897575" />
    <radialGradient
       xlink:href="#linearGradient101492"
       id="radialGradient1308"
       gradientUnits="userSpaceOnUse"
       gradientTransform="matrix(1.2789615,0,0,0.6550617,1.2916128,107.05437)"
       cx="-4.6300764"
       cy="310.358"
       fx="-4.6300764"
       fy="310.358"
       r="25.897575" />
    <radialGradient
       xlink:href="#linearGradient101492"
       id="radialGradient1310"
       gradientUnits="userSpaceOnUse"
       gradientTransform="matrix(1.2789615,0,0,0.6550617,1.2916128,107.05437)"
       cx="-4.6300764"
       cy="310.358"
       fx="-4.6300764"
       fy="310.358"
       r="25.897575" />
    <radialGradient
       xlink:href="#linearGradient101492"
       id="radialGradient1312"
       gradientUnits="userSpaceOnUse"
       gradientTransform="matrix(1.2789615,0,0,0.6550617,1.2916128,107.05437)"
       cx="-4.6300764"
       cy="310.358"
       fx="-4.6300764"
       fy="310.358"
       r="25.897575" />
    <radialGradient
       xlink:href="#linearGradient101492"
       id="radialGradient1314"
       gradientUnits="userSpaceOnUse"
       gradientTransform="matrix(1.2789615,0,0,0.6550617,1.2916128,107.05437)"
       cx="-4.6300764"
       cy="310.358"
       fx="-4.6300764"
       fy="310.358"
       r="25.897575" />
    <radialGradient
       xlink:href="#linearGradient101492"
       id="radialGradient1316"
       gradientUnits="userSpaceOnUse"
       gradientTransform="matrix(1.2789615,0,0,0.6550617,1.2916128,107.05437)"
       cx="-4.6300764"
       cy="310.358"
       fx="-4.6300764"
       fy="310.358"
       r="25.897575" />
    <radialGradient
       xlink:href="#linearGradient101492"
       id="radialGradient1318"
       gradientUnits="userSpaceOnUse"
       gradientTransform="matrix(1.2789615,0,0,0.6550617,1.2916128,107.05437)"
       cx="-4.6300764"
       cy="310.358"
       fx="-4.6300764"
       fy="310.358"
       r="25.897575" />
    <radialGradient
       xlink:href="#linearGradient101492"
       id="radialGradient1320"
       gradientUnits="userSpaceOnUse"
       gradientTransform="matrix(1.2789615,0,0,0.6550617,1.2916128,107.05437)"
       cx="-4.6300764"
       cy="310.358"
       fx="-4.6300764"
       fy="310.358"
       r="25.897575" />
    <radialGradient
       xlink:href="#linearGradient101492"
       id="radialGradient1322"
       gradientUnits="userSpaceOnUse"
       gradientTransform="matrix(1.2789615,0,0,0.6550617,1.2916128,107.05437)"
       cx="-4.6300764"
       cy="310.358"
       fx="-4.6300764"
       fy="310.358"
       r="25.897575" />
    <radialGradient
       xlink:href="#linearGradient101492"
       id="radialGradient1324"
       gradientUnits="userSpaceOnUse"
       gradientTransform="matrix(1.2789615,0,0,0.6550617,1.2916128,107.05437)"
       cx="-4.6300764"
       cy="310.358"
       fx="-4.6300764"
       fy="310.358"
       r="25.897575" />
    <radialGradient
       xlink:href="#linearGradient101492"
       id="radialGradient1326"
       gradientUnits="userSpaceOnUse"
       gradientTransform="matrix(1.2789615,0,0,0.6550617,1.2916128,107.05437)"
       cx="-4.6300764"
       cy="310.358"
       fx="-4.6300764"
       fy="310.358"
       r="25.897575" />
    <radialGradient
       xlink:href="#linearGradient101492"
       id="radialGradient1328"
       gradientUnits="userSpaceOnUse"
       gradientTransform="matrix(1.2789615,0,0,0.6550617,1.2916128,107.05437)"
       cx="-4.6300764"
       cy="310.358"
       fx="-4.6300764"
       fy="310.358"
       r="25.897575" />
    <radialGradient
       xlink:href="#linearGradient101492"
       id="radialGradient1330"
       gradientUnits="userSpaceOnUse"
       gradientTransform="matrix(1.2789615,0,0,0.6550617,1.2916128,107.05437)"
       cx="-4.6300764"
       cy="310.358"
       fx="-4.6300764"
       fy="310.358"
       r="25.897575" />
    <radialGradient
       xlink:href="#linearGradient101492"
       id="radialGradient1332"
       gradientUnits="userSpaceOnUse"
       gradientTransform="matrix(1.2789615,0,0,0.6550617,1.2916128,107.05437)"
       cx="-4.6300764"
       cy="310.358"
       fx="-4.6300764"
       fy="310.358"
       r="25.897575" />
    <radialGradient
       xlink:href="#linearGradient101492"
       id="radialGradient1334"
       gradientUnits="userSpaceOnUse"
       gradientTransform="matrix(1.2789615,0,0,0.6550617,1.2916128,107.05437)"
       cx="-4.6300764"
       cy="310.358"
       fx="-4.6300764"
       fy="310.358"
       r="25.897575" />
    <radialGradient
       xlink:href="#linearGradient101492"
       id="radialGradient1336"
       gradientUnits="userSpaceOnUse"
       gradientTransform="matrix(1.2789615,0,0,0.6550617,1.2916128,107.05437)"
       cx="-4.6300764"
       cy="310.358"
       fx="-4.6300764"
       fy="310.358"
       r="25.897575" />
    <radialGradient
       xlink:href="#linearGradient101492"
       id="radialGradient1338"
       gradientUnits="userSpaceOnUse"
       gradientTransform="matrix(1.2789615,0,0,0.6550617,1.2916128,107.05437)"
       cx="-4.6300764"
       cy="310.358"
       fx="-4.6300764"
       fy="310.358"
       r="25.897575" />
    <radialGradient
       xlink:href="#linearGradient101492"
       id="radialGradient1340"
       gradientUnits="userSpaceOnUse"
       gradientTransform="matrix(1.2789615,0,0,0.6550617,1.2916128,107.05437)"
       cx="-4.6300764"
       cy="310.358"
       fx="-4.6300764"
       fy="310.358"
       r="25.897575" />
  </defs>
  <g
     id="layer1"
     transform="translate(-82.250665,-78.851366)">
    <g
       id="g36996"
       style="display:inline;fill:url(#radialGradient37004);fill-opacity:1"
       transform="translate(112.77832,-220.82083)">
      <path
         d="m 2.5462043,317.99814 q 0.021696,0 0.032557,0.0155 0.012409,0.0139 0.021696,0.031 0.00931,0.0155 0.037206,0.0729 0.027906,0.0558 0.05271,0.11162 0.024791,0.0543 0.024791,0.0667 0,0.0233 -0.026352,0.045 -0.1100692,0.0837 -0.2744016,0.12713 -0.1643297,0.0419 -0.3023071,0.0419 -0.3255586,0 -0.5596536,-0.14727 -0.2325445,-0.14728 -0.3581182,-0.39843 -0.1240232,-0.25115 -0.1240232,-0.5643 0,-0.2248 0.065114,-0.42478 0.066662,-0.20154 0.1937858,-0.35502 0.1271241,-0.15503 0.3116071,-0.24185 0.1860362,-0.0884 0.4247799,-0.0884 0.1410782,0 0.3007566,0.0387 0.159681,0.0388 0.2775024,0.11628 0.031007,0.0202 0.031007,0.0465 0,0.008 -0.015505,0.045 -0.013944,0.0372 -0.034105,0.0853 -0.020161,0.0465 -0.038759,0.0853 -0.017039,0.0387 -0.023257,0.0512 -0.00775,0.0155 -0.020161,0.0326 -0.010848,0.0155 -0.032557,0.0155 -0.013943,0 -0.026352,-0.006 -0.010848,-0.008 -0.023257,-0.0139 -0.088365,-0.0558 -0.1798317,-0.0884 -0.089918,-0.0341 -0.1968867,-0.0341 -0.1441791,0 -0.2573491,0.0651 -0.1131727,0.0636 -0.1922353,0.17053 -0.077515,0.10697 -0.1178241,0.23719 -0.040307,0.13023 -0.040307,0.26045 0,0.19689 0.068212,0.36587 0.069762,0.16743 0.2108408,0.2713 0.1410755,0.10232 0.3550146,0.10232 0.1085213,0 0.1999876,-0.0294 0.093019,-0.0295 0.1829352,-0.0868 0.012409,-0.008 0.024792,-0.0139 0.012409,-0.008 0.027905,-0.008 z"
         style="font-size:12px;line-height:1.25;font-family:Belanosima;-inkscape-font-specification:Belanosima;letter-spacing:0px;white-space:pre;fill:url(#radialGradient1306);fill-opacity:1;stroke-width:0.264583"
         id="path36610" />
      <path
         d="m 3.031444,316.37808 q 0,-0.0651 0.063563,-0.0651 h 1.2340303 q 0.063561,0 0.063561,0.0651 0,0.0605 0,0.12402 0,0.062 -0.0031,0.12248 -0.00466,0.062 -0.063563,0.062 H 3.445376 q -0.0186,0 -0.0186,0.0186 0,0.12557 0,0.25115 0.00159,0.12402 0.00159,0.24959 0,0.0186 0.0186,0.0186 h 0.7627421 q 0.063561,0 0.063561,0.0636 v 0.21239 q 0,0.0636 -0.063561,0.0636 H 3.4469635 q -0.0186,0 -0.0186,0.0186 0,0.12712 -0.00159,0.2558 0,0.12712 0,0.2558 0,0.0186 0.0186,0.0186 h 0.9177718 q 0.058909,0 0.063561,0.062 0.0031,0.0605 0.0031,0.12402 0.00159,0.062 0.00159,0.12247 0,0.0651 -0.063563,0.0651 h -1.274342 q -0.063563,0 -0.063563,-0.0651 0,-0.0853 0.00159,-0.16898 0.0031,-0.0853 0.00466,-0.17053 0.00466,-0.35657 0.00466,-0.71158 0,-0.2496 -0.00466,-0.4961 -0.00466,-0.24804 -0.00466,-0.49609 z"
         style="font-size:12px;line-height:1.25;font-family:Belanosima;-inkscape-font-specification:Belanosima;letter-spacing:0px;white-space:pre;fill:url(#radialGradient1308);fill-opacity:1;stroke-width:0.264583"
         id="path36612" />
      <path
         d="m 4.7228111,316.37653 q 0,-0.0636 0.063563,-0.0636 h 0.2681997 q 0.063561,0 0.063561,0.0636 0,0.2558 -0.00159,0.5116 -0.00159,0.25579 -0.00159,0.51159 0,0.2558 0.00159,0.5116 0.00159,0.2558 0.00159,0.5116 0,0.0636 -0.063561,0.0636 H 4.7863745 q -0.063563,0 -0.063563,-0.0636 0,-0.2558 0.00159,-0.5116 0.00159,-0.2558 0.00159,-0.5116 0,-0.2558 -0.00159,-0.51159 -0.00159,-0.2558 -0.00159,-0.5116 z"
         style="font-size:12px;line-height:1.25;font-family:Belanosima;-inkscape-font-specification:Belanosima;letter-spacing:0px;white-space:pre;fill:url(#radialGradient1310);fill-opacity:1;stroke-width:0.264583"
         id="path36614" />
      <path
         d="m 5.491755,316.37808 q 0,-0.0651 0.063563,-0.0651 h 0.2650988 q 0.063561,0 0.063561,0.0636 0,0.2775 0.00159,0.55501 0.0031,0.2775 0.0031,0.555 0,0.15038 -0.00159,0.30386 0,0.15192 0,0.30385 0,0.0186 0.0186,0.0186 h 0.8511101 q 0.062013,0 0.063563,0.062 l 0.00466,0.24649 q 0.0031,0.0651 -0.063561,0.0651 H 5.553768 q -0.063563,0 -0.063563,-0.0651 0,-0.0853 0.00159,-0.16898 0.0031,-0.0853 0.00466,-0.17053 0.00466,-0.35657 0.00466,-0.71159 0,-0.24959 -0.00466,-0.49609 -0.00466,-0.24804 -0.00466,-0.49609 z"
         style="font-size:12px;line-height:1.25;font-family:Belanosima;-inkscape-font-specification:Belanosima;letter-spacing:0px;white-space:pre;fill:url(#radialGradient1312);fill-opacity:1;stroke-width:0.264583"
         id="path36616" />
      <path
         d="m 7.1164605,316.37653 q 0,-0.0636 0.063561,-0.0636 h 0.2681997 q 0.063563,0 0.063563,0.0636 0,0.2558 -0.00159,0.5116 -0.00159,0.25579 -0.00159,0.51159 0,0.2558 0.00159,0.5116 0.00159,0.2558 0.00159,0.5116 0,0.0636 -0.063563,0.0636 h -0.2682 q -0.063561,0 -0.063561,-0.0636 0,-0.2558 0.00159,-0.5116 0.00159,-0.2558 0.00159,-0.5116 0,-0.2558 -0.00159,-0.51159 -0.00159,-0.2558 -0.00159,-0.5116 z"
         style="font-size:12px;line-height:1.25;font-family:Belanosima;-inkscape-font-specification:Belanosima;letter-spacing:0px;white-space:pre;fill:url(#radialGradient1314);fill-opacity:1;stroke-width:0.264583"
         id="path36618" />
      <path
         d="m 7.9474147,318.48648 q -0.063561,0 -0.063561,-0.0651 0,-0.0822 0.0031,-0.16278 0.0031,-0.0822 0.00466,-0.16278 0.0031,-0.17983 0.00466,-0.35811 0.0031,-0.17984 0.0031,-0.35812 0,-0.17208 -0.00159,-0.34417 -0.00159,-0.17208 -0.00466,-0.34416 -0.00159,-0.0775 -0.00466,-0.15658 -0.0031,-0.0791 -0.0031,-0.15658 0,-0.0651 0.063561,-0.0651 h 0.58136 q 0.2604475,0 0.4898911,0.0744 0.230994,0.0744 0.4015256,0.2372 0.1705316,0.16123 0.2511474,0.42478 0.057359,0.18913 0.057359,0.38447 0,0.31781 -0.1441765,0.555 -0.142626,0.23565 -0.3906725,0.36742 -0.246496,0.13023 -0.5581058,0.13023 z m 0.334864,-0.37362 h 0.2868026 q 0.3457145,0 0.5519039,-0.18139 0.2077373,-0.18293 0.2077373,-0.53795 0,-0.20154 -0.085264,-0.36122 -0.085267,-0.16123 -0.2387437,-0.25424 -0.1534792,-0.093 -0.3596687,-0.093 H 8.2838292 q 0.00159,0.16433 0.00159,0.33021 0.00159,0.16588 0.00159,0.33176 0,0.38138 -0.00466,0.76585 z"
         style="font-size:12px;line-height:1.25;font-family:Belanosima;-inkscape-font-specification:Belanosima;letter-spacing:0px;white-space:pre;fill:url(#radialGradient1316);fill-opacity:1;stroke-width:0.264583"
         id="path36620" />
      <path
         d="m 11.863447,316.31297 q 0.06356,0 0.06356,0.0651 0,0.0791 -0.0031,0.15813 -0.0031,0.0791 -0.0047,0.15813 -0.0031,0.16588 -0.0047,0.33331 -0.0016,0.16743 -0.0016,0.33331 0,0.17829 0.0016,0.35812 0.0016,0.17984 0.0047,0.35967 0.0031,0.0853 0.0062,0.17208 0.0031,0.0853 0.0031,0.17053 0,0.0651 -0.06356,0.0651 h -0.266633 q -0.03411,0 -0.04651,-0.0155 -0.01241,-0.0155 -0.01704,-0.0465 -0.0031,-0.0279 -0.0047,-0.0775 0,-0.0512 0,-0.10387 0.0016,-0.0527 0.0016,-0.0853 -0.0047,-0.27905 -0.0047,-0.5581 0,-0.0186 -0.02016,-0.0186 h -1.041795 q -0.0186,0 -0.0186,0.0186 0,0.27905 -0.0047,0.5581 0,0.0326 0,0.0853 0.0016,0.0527 0.0016,0.10387 0,0.0496 -0.0047,0.0775 -0.0047,0.031 -0.01707,0.0465 -0.01085,0.0155 -0.04651,0.0155 h -0.2682 q -0.06356,0 -0.06356,-0.0651 0,-0.0853 0.0031,-0.17053 0.0047,-0.0868 0.0062,-0.17208 0.0031,-0.17983 0.0047,-0.35967 0.0016,-0.17983 0.0016,-0.35812 0,-0.16588 -0.0016,-0.33331 -0.0016,-0.16743 -0.0047,-0.33331 -0.0016,-0.0791 -0.0047,-0.15813 -0.0031,-0.0791 -0.0031,-0.15813 0,-0.0651 0.06356,-0.0651 h 0.2682 q 0.03566,0 0.04651,0.0155 0.01241,0.0155 0.01707,0.0465 0.0062,0.0419 0.0031,0.12868 -0.0016,0.0853 0,0.13487 0.0016,0.13798 0.0016,0.2775 0.0016,0.13798 0.0016,0.27596 0,0.0186 0.02016,0.0186 h 1.040245 q 0.02016,0 0.02016,-0.0186 0,-0.13798 0,-0.27596 0.0016,-0.13952 0.0031,-0.2775 0.0016,-0.0496 -0.0016,-0.13487 -0.0016,-0.0868 0.0047,-0.12868 0.0047,-0.031 0.01707,-0.0465 0.01241,-0.0155 0.04651,-0.0155 z"
         style="font-size:12px;line-height:1.25;font-family:Belanosima;-inkscape-font-specification:Belanosima;letter-spacing:0px;white-space:pre;fill:url(#radialGradient1318);fill-opacity:1;stroke-width:0.264583"
         id="path36622" />
      <path
         d="m 13.111432,316.37808 q 0,-0.0651 0.06356,-0.0651 h 0.627868 q 0.136427,0 0.279053,0.0233 0.144176,0.0233 0.265099,0.0837 0.122472,0.0589 0.196886,0.16743 0.07597,0.10697 0.07597,0.2744 0,0.15193 -0.06511,0.26666 -0.06356,0.11317 -0.187587,0.19688 -0.0047,0.003 -0.01085,0.008 -0.0062,0.003 -0.0062,0.0109 0,0.006 0.0062,0.0109 0.0078,0.005 0.01241,0.008 0.158131,0.0791 0.265101,0.19534 0.106969,0.11627 0.106969,0.30541 0,0.17828 -0.07441,0.2992 -0.07441,0.11937 -0.198437,0.19069 -0.122473,0.0713 -0.272852,0.10232 -0.148827,0.031 -0.299206,0.031 h -0.722435 q -0.06356,0 -0.06356,-0.0651 0,-0.0868 0.0031,-0.17363 0.0031,-0.0884 0.0047,-0.17518 0.0047,-0.34882 0.0047,-0.69763 0,-0.32557 -0.0047,-0.65113 -0.0016,-0.0868 -0.0047,-0.17363 -0.0016,-0.0868 -0.0016,-0.17208 z m 0.398425,0.84336 h 0.361216 q 0.08527,0 0.164332,-0.0279 0.08061,-0.0294 0.131773,-0.0915 0.05116,-0.062 0.05116,-0.15813 0,-0.10697 -0.06356,-0.16123 -0.06356,-0.0558 -0.155029,-0.076 -0.09147,-0.0202 -0.176734,-0.0202 h -0.314708 q 0.0016,0.13333 0.0016,0.2682 0,0.13333 0,0.26665 z m -0.0016,0.90382 h 0.378272 q 0.06511,0 0.142626,-0.0109 0.07751,-0.0109 0.147277,-0.0403 0.07131,-0.0295 0.116271,-0.0822 0.04651,-0.0543 0.04651,-0.13798 0,-0.0868 -0.05116,-0.13797 -0.05116,-0.0527 -0.130225,-0.0791 -0.07752,-0.0263 -0.161231,-0.0341 -0.08371,-0.009 -0.147278,-0.009 H 13.50982 q 0,0.13178 0,0.2651 0,0.13333 -0.0016,0.26665 z"
         style="font-size:12px;line-height:1.25;font-family:Belanosima;-inkscape-font-specification:Belanosima;letter-spacing:0px;white-space:pre;fill:url(#radialGradient1320);fill-opacity:1;stroke-width:0.264583"
         id="path36624" />
      <path
         d="m 14.979532,318.48648 q -0.0217,0 -0.04651,-0.006 -0.02479,-0.008 -0.02479,-0.0372 0,-0.0124 0.0047,-0.0248 0.0047,-0.0124 0.0093,-0.0233 0.136424,-0.29455 0.26975,-0.58911 0.134876,-0.29456 0.265099,-0.59221 0.10697,-0.24495 0.212391,-0.48989 0.10542,-0.2465 0.21704,-0.48834 0.0047,-0.009 0.0155,-0.009 0.01085,0 0.0155,0.009 0.111619,0.24184 0.21704,0.48834 0.10542,0.24494 0.212391,0.48989 0.130222,0.29765 0.263548,0.59221 0.134874,0.29456 0.271301,0.58911 0.0047,0.0109 0.0093,0.0233 0.0047,0.0124 0.0047,0.0248 0,0.0295 -0.02479,0.0372 -0.02479,0.006 -0.04651,0.006 h -0.313157 q -0.03876,0 -0.05891,-0.0388 -0.01241,-0.0248 -0.02326,-0.0527 -0.01085,-0.0279 -0.0217,-0.0527 -0.03411,-0.0775 -0.06666,-0.15813 -0.03101,-0.0806 -0.06666,-0.15813 -0.0047,-0.0124 -0.01707,-0.0124 h -0.767393 q -0.01241,0 -0.01704,0.0124 -0.03721,0.0775 -0.07131,0.15813 -0.03256,0.0806 -0.06821,0.15968 -0.01085,0.0248 -0.02326,0.0527 -0.01085,0.0279 -0.02479,0.0527 -0.02016,0.0372 -0.05736,0.0372 z m 0.638719,-0.79685 h 0.516246 q -0.06201,-0.15503 -0.125573,-0.30851 -0.06356,-0.15503 -0.127124,-0.31006 -0.06511,0.15503 -0.131773,0.31006 -0.06511,0.15348 -0.131776,0.30851 z"
         style="font-size:12px;line-height:1.25;font-family:Belanosima;-inkscape-font-specification:Belanosima;letter-spacing:0px;white-space:pre;fill:url(#radialGradient1322);fill-opacity:1;stroke-width:0.264583"
         id="path36626" />
      <path
         d="m 19.031989,318.54849 q -0.0093,0 -0.09302,-0.076 -0.08217,-0.0775 -0.212389,-0.20153 -0.130225,-0.12558 -0.285255,-0.27441 -0.155029,-0.15037 -0.308506,-0.2992 -0.153479,-0.15038 -0.283704,-0.2744 -0.128675,-0.12558 -0.209291,-0.20154 -0.07906,-0.076 -0.08371,-0.076 -0.0078,0 -0.0093,0.0124 -0.0016,0.0109 -0.0016,0.0155 0,0.14107 0,0.28215 0.0016,0.13953 0.0016,0.2806 0,0.11782 0,0.23565 0,0.11627 -0.0016,0.23564 0,0.0496 0.0016,0.10852 0.0031,0.0589 -0.0031,0.10852 -0.0031,0.031 -0.0155,0.0465 -0.01241,0.0155 -0.04806,0.0155 H 17.20574 q -0.06356,0 -0.06356,-0.0651 0,-0.0884 0.0031,-0.17674 0.0047,-0.0884 0.0062,-0.17673 0.0031,-0.17673 0.0047,-0.35347 0.0016,-0.17673 0.0016,-0.35347 0,-0.18603 -0.0016,-0.37206 -0.0016,-0.18604 -0.0062,-0.37207 -0.0016,-0.0884 -0.0062,-0.17674 -0.0031,-0.0884 -0.0031,-0.17673 0,-0.009 0.0093,-0.009 0.0093,0 0.01551,0.006 0.368969,0.34261 0.722433,0.70228 0.353467,0.35812 0.716236,0.70693 0.0031,0.003 0.0093,0.009 0.0062,0.005 0.01241,0.005 0.0093,0 0.0093,-0.0109 0.0016,-0.0124 0.0016,-0.0171 0,-0.14418 -0.0016,-0.2868 0,-0.14418 0,-0.28836 0,-0.12402 0,-0.24649 0,-0.12403 0.0016,-0.2465 0,-0.0512 -0.0016,-0.10542 -0.0016,-0.0543 0.0031,-0.10542 0.0031,-0.0326 0.0155,-0.0481 0.01241,-0.0155 0.04806,-0.0155 h 0.266649 q 0.06356,0 0.06356,0.0651 0,0.0806 -0.0031,0.16123 -0.0031,0.0806 -0.0047,0.16278 -0.0031,0.16898 -0.0047,0.34106 -0.0016,0.17053 -0.0016,0.34107 0,0.57981 0.0186,1.15961 z"
         style="font-size:12px;line-height:1.25;font-family:Belanosima;-inkscape-font-specification:Belanosima;letter-spacing:0px;white-space:pre;fill:url(#radialGradient1324);fill-opacity:1;stroke-width:0.264583"
         id="path36628" />
      <path
         d="m 19.484675,318.48648 q -0.06356,0 -0.06356,-0.0651 0,-0.0822 0.0031,-0.16278 0.0031,-0.0822 0.0047,-0.16278 0.0031,-0.17983 0.0047,-0.35811 0.0031,-0.17984 0.0031,-0.35812 0,-0.17208 -0.0016,-0.34417 -0.0016,-0.17208 -0.0047,-0.34416 -0.0016,-0.0775 -0.0047,-0.15658 -0.0031,-0.0791 -0.0031,-0.15658 0,-0.0651 0.06356,-0.0651 h 0.58136 q 0.260447,0 0.489891,0.0744 0.230991,0.0744 0.401525,0.2372 0.170532,0.16123 0.251145,0.42478 0.05736,0.18913 0.05736,0.38447 0,0.31781 -0.144177,0.555 -0.142626,0.23565 -0.390672,0.36742 -0.246496,0.13023 -0.558106,0.13023 z m 0.334864,-0.37362 h 0.286802 q 0.345715,0 0.551904,-0.18139 0.207737,-0.18293 0.207737,-0.53795 0,-0.20154 -0.08526,-0.36122 -0.08527,-0.16123 -0.238746,-0.25424 -0.153477,-0.093 -0.359666,-0.093 h -0.36122 q 0.0016,0.16433 0.0016,0.33021 0.0016,0.16588 0.0016,0.33176 0,0.38138 -0.0047,0.76585 z"
         style="font-size:12px;line-height:1.25;font-family:Belanosima;-inkscape-font-specification:Belanosima;letter-spacing:0px;white-space:pre;fill:url(#radialGradient1326);fill-opacity:1;stroke-width:0.264583"
         id="path36630" />
      <path
         d="m -1.8653549,314.40539 c -0.0276,0 -0.16537,-0.11255 -0.41341,-0.33762 -0.24346,-0.22968 -0.55811,-0.52825 -0.94396,-0.89573 -0.38585,-0.37207 -0.80845,-0.77859 -1.26779,-1.21956 -1.03513,-1.00348 -1.10292,-1.0342 -1.97473,-1.85759 -0.23427,-0.22508 -0.35829,-0.33763 -0.37207,-0.33763 -0.023,0 -0.0367,0.0184 -0.0413,0.0551 -0.005,0.0322 -0.007,0.0551 -0.007,0.0689 v 1.25401 c 0.005,0.41342 0.007,6.12079 0.007,6.53879 v 1.04731 c 0,0.34451 -0.002,0.69362 -0.007,1.04731 0,0.14699 0.002,0.30776 0.007,0.48232 0.009,0.17455 0.005,0.33532 -0.0138,0.48231 -0.009,0.0919 -0.0322,0.16077 -0.0689,0.2067 -0.0367,0.0459 -0.16262,0.16145 -0.21359,0.0689 -0.71809,-1.12703 -1.97269,-3.06595 -1.99677,-4.24986 0.007,-0.78549 0,0 0.007,-0.78549 0.005,-0.52371 0.0161,-1.0473 0.0207,-1.57096 0.005,-0.52365 0.007,-3.69314 0.007,-4.21679 0.0226,-0.86485 -0.0307,-2.10787 -0.0344,-2.24896 -0.005,-0.26183 -0.0138,-0.52365 -0.0276,-0.78548 -0.009,-0.26183 -0.0138,-0.52366 -0.0138,-0.78548 0,-0.0276 0.0138,-0.0413 0.0414,-0.0413 0.0276,0 0.0505,0.009 0.0689,0.0276 1.09324,1.01515 2.16352,2.05557 3.21082,3.12125 1.04731,1.06109 0.5209,0.5209 1.59577,1.55443 l 0.0413,0.0413 c 0.0184,0.0138 0.0367,0.0207 0.0551,0.0207 0.0276,0 0.0414,-0.0161 0.0414,-0.0482 0.005,-0.0368 0.007,-0.062 0.007,-0.0758 0,-0.42719 -0.002,-0.85209 -0.007,-1.27468 v -6.57325 -1.09554 c 0,-0.36747 0.002,-0.73265 0.007,-1.09554 0,-0.15158 -0.002,-0.30776 -0.007,-0.46853 -0.005,-0.16077 0,-0.31695 0.0138,-0.46853 0.009,-0.0965 0.0322,-0.16766 0.0689,-0.2136 0.0367,-0.0459 0.1634,-0.16187 0.2136,-0.0689 0.67328,1.07993 1.94172,3.0926 1.96232,4.18097 10e-6,0.72347 0,0 10e-6,0.72347 -0.009,0.50068 -0.0161,1.00597 -0.0207,1.51584 -0.005,0.50528 -0.007,3.65639 -0.007,4.16167 0,1.71796 0.0276,2.37758 0.0827,4.09553 z"
         style="font-size:53.3334px;line-height:1.25;font-family:Belanosima;-inkscape-font-specification:Belanosima;letter-spacing:0px;white-space:pre;fill:url(#radialGradient1328);fill-opacity:1;stroke-width:0.264583"
         id="path49029-6-7" />
      <path
         d="m -30.522519,307.0138 q 0,-0.21704 0.211873,-0.21704 h 4.382154 q 0.211872,0 0.211872,0.21704 0,0.20153 0,0.41341 0.0052,0.2067 -0.01035,0.40824 -0.0155,0.20671 -0.211872,0.20671 h -1.498616 q -0.06201,0 -0.06201,0.062 0,0.54777 -0.0052,1.09554 0,0.5426 0,1.09037 0,0.88366 0.0052,1.77249 0.0052,0.88367 0.0052,1.76734 0,0.21187 -0.211873,0.21187 h -0.894002 q -0.211872,0 -0.211872,-0.21187 0,-0.90951 0.0052,-1.81901 0.01035,-0.90951 0.01035,-1.81384 l -0.0052,-2.09289 q 0,-0.062 -0.06718,-0.062 h -1.431435 q -0.196371,0 -0.211873,-0.20671 -0.0155,-0.20154 -0.0155,-0.40824 0.0052,-0.21188 0.0052,-0.41341 z"
         style="font-size:40px;line-height:1.25;font-family:Belanosima;-inkscape-font-specification:Belanosima;letter-spacing:2.5px;white-space:pre;fill:url(#radialGradient1330);fill-opacity:1;stroke-width:0.264583"
         id="path36579" />
      <path
         d="m -24.331695,314.04178 q -0.07234,0 -0.155027,-0.0207 -0.08268,-0.0259 -0.08268,-0.12402 0,-0.0413 0.0155,-0.0827 0.0155,-0.0413 0.03101,-0.0775 0.454752,-0.98185 0.899169,-1.9637 0.449582,-0.98185 0.883664,-1.97403 0.356568,-0.81649 0.707966,-1.63298 0.3514,-0.82165 0.72347,-1.6278 0.0155,-0.031 0.05168,-0.031 0.03617,0 0.05168,0.031 0.37207,0.80615 0.72347,1.6278 0.351398,0.81649 0.707966,1.63298 0.43408,0.99218 0.878497,1.97403 0.449584,0.98185 0.904336,1.9637 0.01551,0.0362 0.03101,0.0775 0.0155,0.0413 0.0155,0.0827 0,0.0982 -0.08268,0.12402 -0.08268,0.0207 -0.15503,0.0207 h -1.043861 q -0.129191,0 -0.196371,-0.12919 -0.04134,-0.0827 -0.07752,-0.1757 -0.03617,-0.093 -0.07234,-0.1757 -0.113689,-0.25838 -0.22221,-0.5271 -0.103352,-0.26872 -0.222208,-0.5271 -0.0155,-0.0413 -0.05684,-0.0413 h -2.557977 q -0.04134,0 -0.05684,0.0413 -0.124024,0.25838 -0.237712,0.5271 -0.108519,0.26872 -0.227375,0.53227 -0.03617,0.0827 -0.07751,0.1757 -0.03617,0.093 -0.08268,0.1757 -0.06718,0.12402 -0.191203,0.12402 z m 2.129067,-2.65616 h 1.720823 q -0.206706,-0.51677 -0.418581,-1.02836 -0.211873,-0.51677 -0.423745,-1.03353 -0.21704,0.51676 -0.439248,1.03353 -0.217042,0.51159 -0.439249,1.02836 z m 0.558103,-5.3175 q -0.08785,0 -0.14986,-0.062 -0.268718,-0.25322 -0.521932,-0.51677 -0.253214,-0.26871 -0.511595,-0.5271 -0.04134,-0.0413 -0.09819,-0.10851 -0.05684,-0.0672 -0.05684,-0.12919 0,-0.093 0.124024,-0.10853 0.124023,-0.0155 0.180866,-0.0155 h 0.749309 q 0.118853,0 0.180866,0.10335 0.165365,0.25321 0.310057,0.52193 0.149862,0.26872 0.294557,0.5271 0.02585,0.0362 0.04134,0.0827 0.02066,0.0465 0.02066,0.093 0,0.093 -0.08785,0.11886 -0.08268,0.0207 -0.15503,0.0207 z"
         style="font-size:40px;line-height:1.25;font-family:Belanosima;-inkscape-font-specification:Belanosima;letter-spacing:2.5px;white-space:pre;fill:url(#radialGradient1332);fill-opacity:1;stroke-width:0.264583"
         id="path36581" />
      <path
         d="m -14.327156,306.79676 q 0.764812,0 1.384928,0.25321 0.620116,0.24805 0.981851,0.77515 0.366902,0.52192 0.366902,1.35391 0,0.66663 -0.258384,1.20406 -0.258381,0.53744 -0.826821,0.89917 -0.03617,0.0155 -0.03617,0.0517 0,0.0207 0.134361,0.24288 0.139525,0.22221 0.34623,0.54777 0.211873,0.32556 0.428913,0.66145 0.22221,0.3359 0.387574,0.59428 0.165364,0.25838 0.211873,0.33073 0.02585,0.0413 0.05167,0.093 0.02585,0.0465 0.02585,0.10335 0,0.093 -0.09819,0.11369 -0.09302,0.0207 -0.155027,0.0207 h -1.028359 q -0.103354,0 -0.175699,-0.093 -0.160197,-0.20671 -0.299725,-0.43409 -0.139525,-0.23254 -0.28422,-0.44958 -0.227375,-0.3514 -0.459919,-0.69763 -0.232542,-0.3514 -0.454752,-0.70797 -0.02066,-0.0362 -0.05684,-0.0362 h -0.925005 q -0.06201,0 -0.06201,0.062 0,0.35657 -0.0052,0.7183 0,0.35657 -0.0052,0.71314 0,0.14986 0.0052,0.3669 0.01035,0.21187 -0.01035,0.3514 -0.0155,0.10335 -0.05684,0.15503 -0.03617,0.0517 -0.155028,0.0517 h -0.894001 q -0.211873,0 -0.211873,-0.21704 0,-0.27905 0.01035,-0.5581 0.01035,-0.28422 0.01551,-0.56844 0.0155,-1.17822 0.0155,-2.36161 0,-1.12138 -0.0155,-2.25309 -0.0052,-0.26872 -0.01551,-0.53227 -0.0052,-0.26871 -0.0052,-0.53743 0,-0.21704 0.211873,-0.21704 z m -0.800982,3.58633 h 1.043862 q 0.511597,0 0.831988,-0.32039 0.320394,-0.32039 0.320394,-0.83716 0,-0.53226 -0.299722,-0.85782 -0.299722,-0.32556 -0.837156,-0.32556 h -1.064533 q 0.0052,0.58394 0.0052,1.17305 0,0.58394 0,1.16788 z"
         style="font-size:40px;line-height:1.25;font-family:Belanosima;-inkscape-font-specification:Belanosima;letter-spacing:2.5px;white-space:pre;fill:url(#radialGradient1334);fill-opacity:1;stroke-width:0.264583"
         id="path36583" />
      <path
         d="m 0.17839333,314.04178 q -0.0723449,0 -0.15502704,-0.0207 -0.08268214,-0.0259 -0.08268214,-0.12402 0,-0.0413 0.01550455,-0.0827 0.01550456,-0.0413 0.03100647,-0.0775 0.45475179,-0.98185 0.89916633,-1.9637 0.4495845,-0.98185 0.8836671,-1.97403 0.3565651,-0.81649 0.7079655,-1.63298 0.3513978,-0.82165 0.7234674,-1.6278 0.015505,-0.031 0.051678,-0.031 0.036174,0 0.051676,0.031 0.3720697,0.80615 0.7234675,1.6278 0.3514004,0.81649 0.7079681,1.63298 0.43408,0.99218 0.8784971,1.97403 0.4495845,0.98185 0.9043363,1.9637 0.015505,0.0362 0.031004,0.0775 0.015505,0.0413 0.015505,0.0827 0,0.0982 -0.082682,0.12402 -0.082682,0.0207 -0.1550297,0.0207 H 5.2840197 q -0.1291905,0 -0.1963708,-0.12919 -0.041341,-0.0827 -0.077515,-0.1757 -0.036174,-0.093 -0.072348,-0.1757 -0.1136859,-0.25838 -0.2222072,-0.5271 -0.1033514,-0.26872 -0.2222073,-0.5271 -0.015505,-0.0413 -0.056846,-0.0413 H 1.8785472 q -0.041341,0 -0.056843,0.0413 -0.1240232,0.25838 -0.2377118,0.5271 -0.1085186,0.26872 -0.2273746,0.53227 -0.036174,0.0827 -0.077515,0.1757 -0.036174,0.093 -0.082682,0.1757 -0.06718,0.12402 -0.1912035,0.12402 z m 2.12906657,-2.65616 h 1.7208204 q -0.2067053,-0.51677 -0.418578,-1.02836 -0.2118727,-0.51677 -0.4237453,-1.03353 -0.21704,0.51676 -0.4392499,1.03353 -0.21704,0.51159 -0.4392472,1.02836 z"
         style="font-size:40px;line-height:1.25;font-family:Belanosima;-inkscape-font-specification:Belanosima;letter-spacing:2.5px;white-space:pre;fill:url(#radialGradient1336);fill-opacity:1;stroke-width:0.264583"
         id="path36585" />
      <path
         d="m 12.709905,312.41397 q 0.07235,0 0.108522,0.0517 0.04134,0.0465 0.07235,0.10335 0.03101,0.0517 0.124023,0.24288 0.09302,0.18604 0.175699,0.37207 0.08268,0.18087 0.08268,0.22221 0,0.0775 -0.08785,0.14986 -0.366902,0.27905 -0.914671,0.42375 -0.547768,0.13952 -1.00769,0.13952 -1.085203,0 -1.8655156,-0.49092 -0.7751432,-0.49093 -1.1937238,-1.32808 -0.4134107,-0.83716 -0.4134107,-1.88102 0,-0.74931 0.2170426,-1.41594 0.2222072,-0.67179 0.6459526,-1.18338 0.4237479,-0.51677 1.0386941,-0.80615 0.6201158,-0.29456 1.4159338,-0.29456 0.470254,0 1.00252,0.12919 0.532267,0.12919 0.925006,0.38757 0.103354,0.0672 0.103354,0.15503 0,0.0258 -0.05168,0.14987 -0.04651,0.12402 -0.113689,0.28422 -0.06718,0.15502 -0.12919,0.28422 -0.05685,0.12919 -0.07752,0.17053 -0.02585,0.0517 -0.06718,0.10852 -0.03617,0.0517 -0.108519,0.0517 -0.04651,0 -0.08785,-0.0207 -0.03617,-0.0258 -0.07751,-0.0465 -0.294558,-0.18603 -0.599447,-0.29455 -0.299722,-0.11369 -0.65629,-0.11369 -0.480588,0 -0.857828,0.21704 -0.3772367,0.21187 -0.6407851,0.56844 -0.258381,0.35657 -0.3927415,0.79065 -0.1343578,0.43408 -0.1343578,0.86816 0,0.65629 0.2273772,1.21956 0.2325419,0.55811 0.7027982,0.90434 0.470254,0.34106 1.183387,0.34106 0.361735,0 0.666624,-0.0982 0.310059,-0.0982 0.609782,-0.28938 0.04134,-0.0258 0.08268,-0.0465 0.04134,-0.0258 0.09302,-0.0258 z"
         style="font-size:40px;line-height:1.25;font-family:Belanosima;-inkscape-font-specification:Belanosima;letter-spacing:2.5px;white-space:pre;fill:url(#radialGradient1338);fill-opacity:1;stroke-width:0.264583"
         id="path36587" />
      <path
         d="m 21.050467,306.79676 q 0.211873,0 0.211873,0.21704 0,0.26354 -0.01034,0.5271 -0.01035,0.26354 -0.01551,0.52709 -0.01035,0.55294 -0.0155,1.11104 -0.0052,0.55811 -0.0052,1.11105 0,0.59427 0.0052,1.19372 0.0052,0.59945 0.0155,1.19889 0.01035,0.28422 0.02066,0.57361 0.01035,0.28422 0.01035,0.56844 0,0.21704 -0.211872,0.21704 h -0.888832 q -0.113689,0 -0.15503,-0.0517 -0.04134,-0.0517 -0.05684,-0.15503 -0.01035,-0.093 -0.0155,-0.25838 0,-0.17053 0,-0.34623 0.0052,-0.1757 0.0052,-0.28422 -0.0155,-0.93017 -0.0155,-1.86035 0,-0.062 -0.06718,-0.062 h -3.47265 q -0.06201,0 -0.06201,0.062 0,0.93018 -0.0155,1.86035 0,0.10852 0,0.28422 0.0052,0.1757 0.0052,0.34623 0,0.16537 -0.01551,0.25838 -0.0155,0.10336 -0.05684,0.15503 -0.03617,0.0517 -0.155029,0.0517 h -0.893999 q -0.211876,0 -0.211876,-0.21704 0,-0.28422 0.01035,-0.56844 0.0155,-0.28939 0.02066,-0.57361 0.01035,-0.59944 0.0155,-1.19889 0.0052,-0.59945 0.0052,-1.19372 0,-0.55294 -0.0052,-1.11105 -0.0052,-0.5581 -0.0155,-1.11104 -0.0052,-0.26355 -0.0155,-0.52709 -0.01035,-0.26356 -0.01035,-0.5271 0,-0.21704 0.211872,-0.21704 h 0.893999 q 0.118856,0 0.15503,0.0517 0.04134,0.0517 0.05684,0.15503 0.02066,0.13953 0.01035,0.42891 -0.0052,0.28422 0,0.44959 0.0052,0.45992 0.0052,0.925 0.0052,0.45993 0.0052,0.91984 0,0.062 0.06718,0.062 h 3.46748 q 0.06718,0 0.06718,-0.062 0,-0.45991 0,-0.91984 0.0052,-0.46508 0.01035,-0.925 0.0052,-0.16537 -0.0052,-0.44959 -0.0052,-0.28938 0.01551,-0.42891 0.0155,-0.10335 0.05684,-0.15503 0.04134,-0.0517 0.155029,-0.0517 z"
         style="font-size:40px;line-height:1.25;font-family:Belanosima;-inkscape-font-specification:Belanosima;letter-spacing:2.5px;white-space:pre;fill:url(#radialGradient1340);fill-opacity:1;stroke-width:0.264583"
         id="path36589" />
    </g>
  </g>
</svg>
